<?xml version="1.0" encoding="utf-8"?>
<!-- Generator: Adobe Illustrator 16.0.0, SVG Export Plug-In . SVG Version: 6.00 Build 0)  -->
<!DOCTYPE svg PUBLIC "-//W3C//DTD SVG 1.1//EN" "http://www.w3.org/Graphics/SVG/1.1/DTD/svg11.dtd">
<svg version="1.1" id="Layer_1" xmlns:sketch="http://www.bohemiancoding.com/sketch/ns"
	 xmlns="http://www.w3.org/2000/svg" xmlns:xlink="http://www.w3.org/1999/xlink" x="0px" y="0px" width="530px" height="247px"
	 viewBox="0 0 530 247" enable-background="new 0 0 530 247" xml:space="preserve">
<title>Imported Layers</title>
<desc>Created with Sketch.</desc>
<g id="Page-1" sketch:type="MSPage">
	<g id="Imported-Layers" sketch:type="MSLayerGroup">
		<path id="Fill-8" sketch:type="MSShapeGroup" fill="#3F403D" d="M523.943,138.195H475.04c-3.055,0-5.54,2.484-5.54,5.539v95.961
			c0,3.054,2.485,5.539,5.54,5.539h48.903c3.055,0,5.54-2.485,5.54-5.539v-95.961C529.483,140.68,526.998,138.195,523.943,138.195
			L523.943,138.195z M528.483,239.695c0,2.503-2.037,4.539-4.54,4.539H475.04c-2.503,0-4.54-2.036-4.54-4.539v-95.961
			c0-2.502,2.037-4.539,4.54-4.539h48.903c2.503,0,4.54,2.037,4.54,4.539V239.695L528.483,239.695z"/>
		<path id="Fill-9" sketch:type="MSShapeGroup" fill="#3F403D" d="M524.286,148.116h-49.59c-0.276,0-0.5,0.223-0.5,0.5v82.396
			c0,0.277,0.224,0.5,0.5,0.5h49.59c0.276,0,0.5-0.223,0.5-0.5v-82.396C524.786,148.339,524.562,148.116,524.286,148.116
			L524.286,148.116z M475.196,149.116h48.59v81.396h-48.59V149.116z"/>
		<path id="Fill-10" sketch:type="MSShapeGroup" fill="#3F403D" d="M495.997,145.001h6.989c0.275,0,0.5-0.224,0.5-0.5
			s-0.225-0.5-0.5-0.5h-6.989c-0.276,0-0.5,0.224-0.5,0.5S495.721,145.001,495.997,145.001"/>
		<path id="Fill-11" sketch:type="MSShapeGroup" fill="#3F403D" d="M499.487,142.454c0.131,0,0.261-0.05,0.359-0.149
			c0.09-0.101,0.141-0.221,0.141-0.351s-0.05-0.261-0.141-0.351c-0.188-0.189-0.51-0.189-0.71,0c-0.09,0.09-0.149,0.221-0.149,0.351
			s0.051,0.25,0.149,0.36C499.237,142.404,499.368,142.454,499.487,142.454"/>
		<path id="Fill-12" sketch:type="MSShapeGroup" fill="#3F403D" d="M491.776,145.673c0.646,0,1.171-0.524,1.171-1.171
			s-0.524-1.171-1.171-1.171c-0.647,0-1.171,0.524-1.171,1.171S491.129,145.673,491.776,145.673"/>
		<path id="Fill-13" sketch:type="MSShapeGroup" fill="#3F403D" d="M499.491,233.27c-2.52,0-4.566,2.049-4.566,4.565
			c0,2.519,2.048,4.567,4.566,4.567c2.518,0,4.566-2.049,4.566-4.567C504.059,235.318,502.01,233.27,499.491,233.27L499.491,233.27z
			 M499.491,241.402c-1.967,0-3.566-1.602-3.566-3.567s1.601-3.565,3.566-3.565s3.566,1.601,3.566,3.565
			C503.059,239.802,501.458,241.402,499.491,241.402L499.491,241.402z"/>
		<path id="Fill-14" sketch:type="MSShapeGroup" fill="#3F403D" d="M383.206,66.725c0.646,0,1.171-0.525,1.171-1.171
			c0-0.647-0.525-1.172-1.171-1.172c-0.647,0-1.171,0.525-1.171,1.172C382.035,66.2,382.559,66.725,383.206,66.725"/>
		<path id="Fill-15" sketch:type="MSShapeGroup" fill="#3F403D" d="M382.034,232.596c-2.52,0-4.566,2.049-4.566,4.568
			c0,2.518,2.048,4.566,4.566,4.566c2.518,0,4.566-2.049,4.566-4.566C386.602,234.645,384.553,232.596,382.034,232.596
			L382.034,232.596z M382.034,240.73c-1.967,0-3.566-1.602-3.566-3.566c0-1.967,1.601-3.568,3.566-3.568s3.566,1.603,3.566,3.568
			C385.602,239.13,384.001,240.73,382.034,240.73L382.034,240.73z"/>
		<path id="Fill-16" sketch:type="MSShapeGroup" fill="#3F403D" d="M187.58,8.574c0.647,0,1.171-0.524,1.171-1.171
			s-0.524-1.171-1.171-1.171s-1.171,0.524-1.171,1.171S186.933,8.574,187.58,8.574"/>
		<path id="Fill-17" sketch:type="MSShapeGroup" fill="#3F403D" d="M187.58,173.738c-2.519,0-4.567,2.049-4.567,4.566
			c0,2.516,2.048,4.565,4.567,4.565c2.518,0,4.566-2.05,4.566-4.565C192.146,175.787,190.098,173.738,187.58,173.738L187.58,173.738
			z M187.58,181.871c-1.967,0-3.567-1.6-3.567-3.566c0-1.966,1.6-3.565,3.567-3.565c1.967,0,3.566,1.6,3.566,3.565
			C191.146,180.271,189.547,181.871,187.58,181.871L187.58,181.871z"/>
		<path id="Fill-18" sketch:type="MSShapeGroup" fill="#3F403D" d="M12.807,203.868h299.527v36.913c0,3.054,2.485,5.539,5.54,5.539
			h130.663c3.055,0,5.54-2.485,5.54-5.539V65.774c0-3.055-2.485-5.54-5.54-5.54l0,0H348.102V5.571c0-3.054-2.483-5.54-5.539-5.54
			H32.597c-3.055,0-5.541,2.486-5.541,5.54v175.971c0,3.056,2.486,5.54,5.541,5.54h279.737v15.786H12.807 M32.597,186.082
			c-2.503,0-4.54-2.037-4.54-4.54V5.571c0-2.503,2.037-4.54,4.54-4.54h309.965c2.503,0,4.538,2.037,4.538,4.54v54.663h-12.494v-48.7
			c0-0.276-0.225-0.5-0.5-0.5H41.053c-0.277,0-0.5,0.224-0.5,0.5V170.13c0,0.276,0.223,0.5,0.5,0.5h271.281v15.452H32.597
			L32.597,186.082z M312.334,169.63H41.553V12.034h292.053v48.2h-15.732c-3.055,0-5.54,2.485-5.54,5.54V169.63L312.334,169.63z
			 M453.077,240.781c0,2.503-2.037,4.539-4.54,4.539H317.874c-2.503,0-4.54-2.036-4.54-4.539V65.774c0-2.503,2.037-4.54,4.54-4.54
			h130.663c2.503,0,4.54,2.037,4.54,4.54V240.781L453.077,240.781z"/>
		<path id="Fill-19" sketch:type="MSShapeGroup" fill="#3F403D" d="M443.759,69.957H322.653c-0.276,0-0.5,0.223-0.5,0.5v158.488
			c0,0.277,0.224,0.5,0.5,0.5h121.104c0.276,0,0.5-0.223,0.5-0.5V70.457C444.259,70.18,444.035,69.957,443.759,69.957
			L443.759,69.957z M323.153,70.956h120.104v157.489H323.153V70.956z"/>
	</g>
</g>
<rect x="57.5" y="40" fill="#5F605D" width="57" height="13"/>
<rect x="57.5" y="58" fill="#5F605D" width="83" height="13"/>
<rect x="57.5" y="83" fill="#5F605D" width="236" height="13"/>
<rect x="58.5" y="104" fill="#5F605D" width="236" height="13"/>
<rect x="59.5" y="127" fill="#5F605D" width="224" height="13"/>
<rect x="259.5" y="24" fill="none" stroke="#000000" stroke-miterlimit="10" width="31" height="22"/>
<line fill="none" stroke="#000000" stroke-miterlimit="10" x1="259.5" y1="24" x2="275" y2="35"/>
<line fill="none" stroke="#000000" stroke-miterlimit="10" x1="290.5" y1="24" x2="275" y2="35"/>
<rect x="331.5" y="86.311" fill="#5F605D" width="40.293" height="9.189"/>
<rect x="331.5" y="99.035" fill="#5F605D" width="58.672" height="9.189"/>
<rect x="331.5" y="116.707" fill="#5F605D" width="98.582" height="9.189"/>
<rect x="331.918" y="131.552" fill="#5F605D" width="98.582" height="9.189"/>
<rect x="331.918" y="148.552" fill="#5F605D" width="98.582" height="9.189"/>
<rect x="332.5" y="163.707" fill="#5F605D" width="98.582" height="9.189"/>
<rect x="332.918" y="178.552" fill="#5F605D" width="98.582" height="9.189"/>
<g>
	
		<rect x="406.293" y="85" fill="none" stroke="#000000" stroke-width="0.7069" stroke-miterlimit="10" width="21.914" height="15.552"/>
	<line fill="none" stroke="#000000" stroke-width="0.7069" stroke-miterlimit="10" x1="406.293" y1="85" x2="417.25" y2="92.776"/>
	<line fill="none" stroke="#000000" stroke-width="0.7069" stroke-miterlimit="10" x1="428.207" y1="85" x2="417.25" y2="92.776"/>
</g>
<text transform="matrix(1 0 0 1 161.8652 69.6602)" fill="#4F4E4E" font-family="'FontAwesome'" font-size="26.25"></text>
<text transform="matrix(1 0 0 1 332.8652 218.6602)" fill="#4F4E4E" font-family="'FontAwesome'" font-size="26.25"></text>
<rect x="480.5" y="161.56" fill="#5F605D" width="15.43" height="3.919"/>
<rect x="480.5" y="166.985" fill="#5F605D" width="22.467" height="3.919"/>
<rect x="480.5" y="174.522" fill="#5F605D" width="37.75" height="3.919"/>
<rect x="480.66" y="180.854" fill="#5F605D" width="37.75" height="3.919"/>
<rect x="480.66" y="188.104" fill="#5F605D" width="37.75" height="3.92"/>
<rect x="480.883" y="194.567" fill="#5F605D" width="37.75" height="3.919"/>
<rect x="481.043" y="200.898" fill="#5F605D" width="37.75" height="3.919"/>
<g>
	
		<rect x="509.141" y="161" fill="none" stroke="#000000" stroke-width="0.2857" stroke-miterlimit="10" width="8.392" height="6.633"/>
	
		<line fill="none" stroke="#000000" stroke-width="0.2857" stroke-miterlimit="10" x1="509.141" y1="161" x2="513.336" y2="164.316"/>
	
		<line fill="none" stroke="#000000" stroke-width="0.2857" stroke-miterlimit="10" x1="517.532" y1="161" x2="513.336" y2="164.316"/>
</g>
<text transform="matrix(0.8979 0 0 1 481.0234 218.0039)" fill="#4F4E4E" font-family="'FontAwesome'" font-size="11.1952"></text>
</svg>
